<svg version="1.1" id="Layer_1" xmlns="http://www.w3.org/2000/svg" xmlns:xlink="http://www.w3.org/1999/xlink" x="0px" y="0px"
	 width="100%" viewBox="0 0 2804 540" enable-background="new 0 0 2804 540" xml:space="preserve">
<path fill="#000000" opacity="0" stroke="none" 
	d="
M2061.000000,541.000000 
	C1374.000122,541.000000 687.500183,541.000000 1.000184,541.000000 
	C1.000123,361.000092 1.000123,181.000214 1.000061,1.000233 
	C935.666443,1.000155 1870.332886,1.000155 2804.999512,1.000077 
	C2804.999512,180.999756 2804.999512,360.999512 2804.999756,540.999634 
	C2557.166748,541.000000 2309.333252,541.000000 2061.000000,541.000000 
M1387.405884,407.247620 
	C1388.764160,408.310638 1390.014160,409.565033 1391.498657,410.404968 
	C1400.011108,415.221924 1408.252441,420.707123 1417.200439,424.524445 
	C1433.223389,431.359985 1450.381836,434.381714 1467.557617,436.744049 
	C1474.799561,437.740112 1482.219727,437.779419 1489.551270,437.680847 
	C1495.733887,437.597748 1501.906738,436.699860 1508.081787,436.138397 
	C1516.458008,435.376831 1525.093140,435.621155 1533.147461,433.580261 
	C1545.781860,430.378784 1558.017944,425.876648 1569.639160,419.478210 
	C1580.511597,413.492126 1591.035034,407.356018 1599.493774,398.175476 
	C1604.872070,392.338196 1610.395630,386.593048 1615.288086,380.362183 
	C1619.835815,374.570374 1624.462280,368.582336 1627.587769,361.985931 
	C1633.989624,348.474365 1638.799072,334.317139 1638.934692,319.081635 
	C1638.963745,315.823547 1638.223999,312.548706 1637.731689,309.297760 
	C1636.422607,300.652252 1630.454468,294.989655 1623.764771,290.892334 
	C1614.432617,285.176666 1604.141479,284.546326 1593.828003,289.355835 
	C1584.898193,293.520172 1580.966553,301.602753 1577.289795,309.872437 
	C1573.628784,318.106384 1571.009644,326.715637 1566.418701,334.655151 
	C1563.428711,339.825897 1560.153076,344.547516 1556.662476,349.351227 
	C1550.278320,358.137024 1542.218140,364.643372 1532.812256,369.387939 
	C1526.713257,372.464447 1519.987671,374.502289 1513.341553,376.231567 
	C1507.215210,377.825653 1500.845337,378.977264 1494.536743,379.246277 
	C1487.396118,379.550751 1480.165161,378.994812 1473.047485,378.172180 
	C1467.540405,377.535645 1462.031982,376.285187 1456.729736,374.643402 
	C1447.871582,371.900513 1439.947388,367.606689 1432.579590,361.593506 
	C1425.215942,355.583618 1418.792847,348.879456 1413.525024,341.244385 
	C1409.376587,335.232086 1406.186523,328.369385 1403.649536,321.486755 
	C1400.990112,314.272766 1399.441650,306.624023 1397.748779,299.088684 
	C1396.768311,294.724274 1396.365723,290.219238 1395.870850,285.758881 
	C1395.043945,278.305878 1393.478271,270.798370 1393.814697,263.385956 
	C1394.275757,253.221558 1392.032837,243.068695 1394.644165,232.837616 
	C1396.206055,226.718231 1394.978394,219.904617 1396.415771,213.731644 
	C1398.805054,203.470612 1401.692627,193.223755 1405.539062,183.429947 
	C1410.229980,171.486176 1417.034912,160.602722 1425.779419,151.038849 
	C1432.191162,144.026199 1439.922241,138.733353 1448.120483,134.200546 
	C1458.749268,128.323929 1470.451538,124.767166 1482.432861,124.629211 
	C1492.122314,124.517654 1502.140137,123.085686 1511.730957,126.658249 
	C1518.398926,129.142166 1525.743530,130.236816 1531.894409,133.588196 
	C1542.689941,139.470428 1551.618042,147.610855 1558.980835,157.879410 
	C1565.514282,166.991272 1570.864380,176.673889 1576.583008,186.211853 
	C1580.775146,193.203629 1584.886475,200.369827 1592.957764,203.961411 
	C1598.079346,206.240570 1603.427490,205.761307 1608.731079,206.408981 
	C1619.935669,207.777252 1632.911255,195.401337 1635.963989,186.626160 
	C1639.480835,176.517410 1638.659180,165.889862 1635.364258,156.531540 
	C1629.859253,140.896133 1621.806030,126.227615 1609.361694,114.581207 
	C1604.000732,109.563919 1599.124878,103.939651 1593.336060,99.492470 
	C1587.307129,94.860863 1580.726074,90.728401 1573.878784,87.432083 
	C1563.234497,82.307747 1552.384155,77.402199 1541.194946,73.688011 
	C1532.942383,70.948631 1524.042358,70.046600 1515.370605,68.719170 
	C1508.063477,67.600639 1500.682983,66.590752 1493.310669,66.380936 
	C1486.645508,66.191238 1479.948364,67.159309 1473.264038,67.597519 
	C1469.293945,67.857780 1465.218384,67.598831 1461.371094,68.420074 
	C1453.222168,70.159576 1445.109619,72.181816 1437.131836,74.585037 
	C1425.572266,78.067314 1414.428223,82.569611 1403.987793,88.805717 
	C1395.715332,93.746941 1387.547852,98.703148 1380.671875,105.588303 
	C1373.064453,113.205727 1364.629761,120.092850 1357.720703,128.281281 
	C1352.210449,134.812149 1347.923096,142.553040 1344.039795,150.235519 
	C1338.652344,160.894104 1332.985229,171.650299 1329.571899,183.006165 
	C1325.484131,196.605438 1321.846313,210.498871 1321.696411,225.040237 
	C1321.610229,233.400513 1319.041138,241.779434 1319.331665,250.089050 
	C1319.773682,262.724915 1320.085815,275.439819 1322.732056,287.953430 
	C1324.629883,296.927887 1324.917358,306.297699 1327.376465,315.084473 
	C1330.317749,325.594330 1334.176025,335.963776 1338.770874,345.868073 
	C1346.033936,361.523987 1355.497192,375.975098 1366.875122,388.972321 
	C1372.365845,395.244507 1378.931396,400.578735 1385.061646,406.282227 
	C1385.484863,406.675903 1386.339966,406.605164 1387.405884,407.247620 
M751.936584,437.856537 
	C753.395325,437.333252 754.846252,436.388245 756.314209,436.360992 
	C762.074951,436.254028 766.320496,433.032990 770.412109,429.676147 
	C779.438232,422.270874 780.140442,411.409027 781.768250,401.022064 
	C782.163086,398.502594 781.826965,395.868591 781.826965,392.814148 
	C786.384827,398.228241 790.242188,403.188324 794.515564,407.759552 
	C797.591248,411.049652 801.055908,414.039612 804.648621,416.765930 
	C808.665161,419.813843 812.812927,422.818054 817.274170,425.124390 
	C827.103760,430.206024 837.114929,434.812195 848.531860,435.394775 
	C854.043945,435.676025 859.568420,437.931915 864.975647,437.579651 
	C875.652283,436.884125 886.440552,435.811462 896.835571,433.398987 
	C910.723755,430.175781 923.105042,423.097168 934.010864,413.984222 
	C939.373840,409.502991 943.520142,403.582214 948.327698,398.415802 
	C954.918152,391.333466 959.297607,382.905334 963.560913,374.345337 
	C971.171631,359.064270 974.427063,342.488464 977.669006,325.995850 
	C978.993835,319.255890 978.116943,312.074646 978.163391,305.093628 
	C978.260071,290.576569 979.105957,276.004791 975.334045,261.741150 
	C972.727417,251.884171 971.316895,241.479660 967.168762,232.317261 
	C961.345520,219.455109 954.901428,206.580887 943.672302,197.082138 
	C938.912048,193.055496 934.896484,187.999985 929.751465,184.614075 
	C923.190552,180.296295 915.900391,177.047333 908.794128,173.607101 
	C899.289734,169.005951 888.775879,166.857117 878.611572,166.591278 
	C864.051514,166.210495 849.234375,165.761307 834.887939,170.446365 
	C820.444336,175.163162 807.887146,182.834808 796.497803,192.654816 
	C791.749390,196.748947 787.114075,200.974335 781.793579,205.703323 
	C781.793579,203.241669 781.838501,201.480652 781.786926,199.722443 
	C780.770813,165.076691 783.567200,130.395401 780.382385,95.747078 
	C779.395508,85.009956 774.812744,76.848984 766.340210,71.321213 
	C759.552612,66.892708 752.003235,65.519463 743.137512,67.467323 
	C731.508301,70.022362 725.423035,76.455200 721.511719,86.960922 
	C718.783569,94.288658 718.717834,101.571144 718.726562,109.135963 
	C718.830933,199.610825 718.773865,290.085876 718.820862,380.560852 
	C718.826355,391.162567 718.606079,401.824127 719.666443,412.339386 
	C720.166382,417.297089 722.547791,422.691467 725.667603,426.626740 
	C731.953491,434.555725 741.019287,437.695526 751.936584,437.856537 
M1143.857422,335.505524 
	C1149.317261,330.692047 1154.714966,325.805695 1160.254272,321.085297 
	C1165.858398,316.309631 1171.618408,311.717438 1177.281250,307.010071 
	C1185.285156,300.356537 1193.289795,293.703552 1201.242798,286.989563 
	C1208.245972,281.077393 1215.629883,275.525360 1222.031860,269.014191 
	C1230.648438,260.250671 1239.346924,251.329208 1246.406860,241.342072 
	C1253.170898,231.773499 1258.629272,221.074570 1263.253418,210.269897 
	C1266.628662,202.383331 1268.372925,193.613510 1269.610962,185.058929 
	C1270.526489,178.734238 1269.528931,172.118851 1269.242554,165.639191 
	C1269.069824,161.732208 1269.184570,157.687546 1268.186768,153.968597 
	C1266.248535,146.744156 1264.214600,139.432281 1261.115479,132.662323 
	C1257.587891,124.955719 1253.440430,117.373085 1248.456177,110.543983 
	C1244.533936,105.170052 1239.202026,100.693718 1234.001831,96.420288 
	C1228.660522,92.030891 1222.961426,87.948250 1216.967529,84.521202 
	C1211.806030,81.570152 1206.182739,79.073914 1200.451294,77.557121 
	C1192.313721,75.403519 1183.904297,74.245293 1175.581177,72.838310 
	C1171.850830,72.207703 1168.053589,71.736885 1164.277100,71.657738 
	C1151.747803,71.395164 1139.204346,71.012527 1126.686890,71.378983 
	C1121.887817,71.519478 1117.082764,73.351547 1112.388672,74.770851 
	C1103.867310,77.347435 1095.151978,79.558594 1087.022705,83.086021 
	C1076.959961,87.452347 1067.893311,93.553253 1059.844482,101.305298 
	C1051.304199,109.530579 1043.617798,118.028397 1038.189697,128.828659 
	C1031.123169,142.889023 1026.344360,157.272415 1026.614868,173.104904 
	C1026.919800,190.949966 1036.319946,200.233566 1051.458496,202.461685 
	C1061.279419,203.907166 1071.652344,201.787216 1077.281250,191.531982 
	C1081.281982,184.243164 1084.895264,176.718307 1088.267334,169.115189 
	C1090.953979,163.057495 1091.939575,155.968643 1095.629272,150.703293 
	C1100.125122,144.287750 1104.191772,137.497009 1111.170166,132.550064 
	C1120.308716,126.071884 1129.958252,121.766373 1140.724365,120.426834 
	C1147.178833,119.623764 1154.116089,120.054527 1160.459595,121.540100 
	C1175.120605,124.973541 1187.019287,133.016876 1195.178467,145.946976 
	C1199.665527,153.057739 1202.142334,160.690079 1202.333984,169.342850 
	C1202.495972,176.654984 1202.221680,183.592163 1200.475952,190.827957 
	C1196.171387,208.669708 1185.591675,222.428543 1173.556519,235.381653 
	C1169.564819,239.677780 1164.940430,243.391861 1160.549194,247.309204 
	C1156.611938,250.821671 1152.768066,254.471436 1148.580811,257.664215 
	C1140.548462,263.788757 1132.129272,269.413513 1124.199219,275.662445 
	C1117.976685,280.565826 1112.144531,285.984741 1106.327759,291.378052 
	C1099.326538,297.869476 1092.448486,304.498810 1085.654541,311.207428 
	C1074.630005,322.093323 1063.812256,333.189850 1052.724976,344.010651 
	C1044.865112,351.681580 1038.479248,360.356781 1033.839355,370.268311 
	C1028.647461,381.359100 1023.168213,392.338043 1026.369629,405.374359 
	C1028.399170,413.638336 1033.379883,419.997772 1039.771484,424.497589 
	C1047.363525,429.842468 1056.722290,431.037231 1066.094849,431.028534 
	C1124.746338,430.974304 1183.397827,431.035431 1242.049194,430.936523 
	C1246.767578,430.928558 1251.647461,430.605194 1256.166504,429.376709 
	C1264.561035,427.094666 1271.482422,422.301147 1273.853149,413.462524 
	C1275.121094,408.734741 1274.638794,403.558167 1275.174316,398.608765 
	C1276.200562,389.123718 1266.189697,379.844696 1258.820923,377.060669 
	C1251.143677,374.160095 1243.413086,373.577545 1235.275879,373.629272 
	C1193.475342,373.895142 1151.672485,373.752441 1109.170654,373.752441 
	C1112.035889,369.929413 1114.598999,366.364746 1117.320312,362.925232 
	C1119.421509,360.269348 1121.587646,357.639191 1123.958374,355.227020 
	C1130.335083,348.738617 1136.836914,342.373199 1143.857422,335.505524 
M480.617645,244.932205 
	C481.295685,243.930161 482.054077,242.972748 482.639343,241.919159 
	C488.511353,231.348785 496.834961,223.011536 507.477386,217.608917 
	C517.401428,212.570984 528.711792,212.054291 539.589844,211.421829 
	C546.993591,210.991379 554.526855,212.999420 562.016479,213.780746 
	C571.068115,214.725021 579.410645,217.192703 583.771973,226.008575 
	C586.883057,232.297318 589.495850,238.902298 591.596252,245.596695 
	C592.980347,250.008118 593.105408,254.823151 593.699829,259.469543 
	C593.935852,261.314697 594.413574,262.806000 591.365662,263.577240 
	C574.880920,267.748566 558.558777,272.562073 542.074402,276.735046 
	C531.257690,279.473358 520.265869,281.523346 509.344299,283.843231 
	C495.642853,286.753601 481.806152,289.136139 468.263763,292.654663 
	C455.573578,295.951813 444.244629,302.599915 435.112457,311.937897 
	C429.680573,317.492157 425.526184,324.473602 421.607300,331.279663 
	C417.703461,338.059631 417.284210,346.055786 415.360199,353.504211 
	C413.480835,360.779816 414.619629,367.613495 415.624298,374.058044 
	C416.915558,382.341156 421.107361,390.293976 424.749878,398.060669 
	C430.504211,410.330200 440.662384,418.818848 451.948456,425.460266 
	C466.862885,434.236847 483.582550,437.408752 500.779541,437.667023 
	C505.127106,437.732391 509.488495,436.681061 513.848145,436.183044 
	C521.070007,435.358093 528.698242,435.764740 535.433777,433.503418 
	C548.413086,429.145813 561.331604,424.332367 572.774353,416.320007 
	C581.002258,410.558777 589.693481,405.459259 598.284668,399.996704 
	C598.301025,400.259491 598.128296,400.951355 598.398010,401.314758 
	C606.360168,412.042328 612.890686,423.991058 624.017212,432.049683 
	C629.139099,435.759338 635.156555,438.845276 641.269104,437.536957 
	C647.893250,436.119202 654.830505,433.534576 660.223755,429.552612 
	C670.872131,421.690704 672.863525,408.369720 668.386780,395.998749 
	C664.509888,385.285004 661.672607,374.099152 659.487061,362.904999 
	C658.168396,356.150604 658.889526,348.982513 658.835938,341.999207 
	C658.628845,315.008728 658.584778,288.016541 658.246765,261.027863 
	C658.136658,252.231796 657.868408,243.365753 656.629700,234.680481 
	C655.770752,228.658447 653.018494,222.922440 651.302856,217.003387 
	C647.480774,203.817093 639.996887,193.471130 629.046143,185.030685 
	C619.087524,177.354950 607.890320,173.289001 595.972168,170.644257 
	C589.813354,169.277557 583.525757,168.436935 577.263672,167.604050 
	C570.575500,166.714462 563.848511,165.514755 557.139221,165.519547 
	C545.312622,165.527985 533.486877,166.353149 521.660339,166.826675 
	C517.235718,167.003845 512.708557,166.620865 508.407990,167.438812 
	C501.615875,168.730698 494.866241,170.489288 488.299286,172.657974 
	C480.584686,175.205673 472.514130,177.449722 465.639099,181.564819 
	C457.481262,186.447754 449.892487,192.633209 443.090240,199.307190 
	C438.445312,203.864487 434.961304,209.930435 432.087616,215.868439 
	C429.628143,220.950607 429.057587,226.910492 427.142670,232.301392 
	C424.430573,239.936493 427.328644,246.586731 431.462891,252.154251 
	C439.997467,263.647888 452.321777,265.358368 465.506531,262.654175 
	C467.269989,262.292511 468.788300,260.093597 470.143982,258.509186 
	C473.752411,254.291916 477.209991,249.945587 480.617645,244.932205 
M2131.960449,433.818573 
	C2132.970947,433.364166 2133.947998,432.802612 2134.997314,432.472076 
	C2145.100098,429.289978 2155.092529,426.049957 2164.379639,420.613861 
	C2170.693359,416.918427 2177.174316,413.727936 2182.386475,408.409973 
	C2187.351807,403.343658 2193.586670,399.223145 2197.470703,393.475281 
	C2201.814697,387.046722 2205.019531,379.496887 2207.086670,371.985474 
	C2208.942139,365.242981 2207.876221,358.051819 2202.531250,352.447296 
	C2197.165527,346.820953 2190.085205,345.216522 2182.856689,345.419189 
	C2178.789062,345.533234 2174.034424,346.788086 2170.893311,349.216003 
	C2163.282959,355.098236 2156.315186,361.840485 2149.316650,368.476959 
	C2142.224854,375.201660 2134.615723,381.267761 2125.631836,385.049530 
	C2118.108398,388.216400 2110.127441,392.274414 2102.327393,392.321259 
	C2091.787842,392.384613 2080.876709,393.702087 2070.369629,389.700195 
	C2061.064453,386.156067 2052.580078,381.212860 2046.155396,374.035309 
	C2040.741333,367.986847 2036.988770,360.285828 2033.263672,352.929962 
	C2027.946777,342.430664 2025.848022,331.138000 2027.042969,318.925049 
	C2029.072632,318.925049 2030.869141,318.925079 2032.665527,318.925079 
	C2071.831787,318.925079 2111.000244,319.171692 2150.162354,318.770111 
	C2161.458252,318.654297 2172.859375,317.342194 2183.970703,315.278748 
	C2189.955566,314.167267 2195.827148,310.917358 2201.042480,307.539978 
	C2209.256592,302.220612 2210.527588,292.792877 2211.593262,284.203064 
	C2212.500977,276.886841 2211.903076,269.150665 2210.582520,261.851501 
	C2209.013672,253.178650 2206.988525,244.294846 2203.294434,236.372833 
	C2198.464844,226.014816 2193.059082,215.412521 2185.617188,206.915924 
	C2176.412842,196.407272 2165.537354,187.511169 2152.826172,180.442307 
	C2136.413574,171.315262 2118.960693,166.774261 2100.970215,165.578583 
	C2084.466553,164.481720 2067.595947,165.036072 2051.227295,169.412170 
	C2030.160156,175.044342 2011.071045,184.236893 1995.321045,199.605606 
	C1992.664185,202.198135 1990.400146,205.209030 1988.078491,208.125427 
	C1984.761475,212.292175 1980.963501,216.221619 1978.420654,220.831467 
	C1971.187744,233.943985 1965.668335,247.643082 1962.384033,262.483643 
	C1959.494263,275.541443 1958.019897,288.620148 1958.258911,301.764679 
	C1958.434570,311.421844 1957.691895,321.244751 1960.626709,330.884277 
	C1962.968018,338.574402 1962.850464,347.066132 1965.547485,354.583893 
	C1971.026978,369.857880 1978.610107,384.289978 1989.429932,396.506775 
	C1995.352783,403.194397 2002.154785,409.442413 2009.563354,414.385315 
	C2017.910522,419.954468 2027.030396,424.839050 2036.467529,428.171021 
	C2046.394409,431.675934 2057.070801,433.106354 2067.466797,435.210327 
	C2071.823975,436.092163 2076.296387,436.783691 2080.727051,436.849762 
	C2092.309814,437.022614 2103.912109,437.106140 2115.479492,436.603516 
	C2120.760254,436.374084 2125.977295,434.680023 2131.960449,433.818573 
M2449.929688,171.904358 
	C2438.637939,167.628769 2426.750732,165.437561 2414.884766,165.433136 
	C2405.264893,165.429535 2395.648193,168.219559 2386.022705,169.723099 
	C2370.470459,172.152481 2358.088867,180.908524 2346.474365,190.536911 
	C2339.647949,196.196182 2334.183594,203.499039 2328.320312,209.831741 
	C2327.978271,205.440460 2327.285156,200.692078 2327.307617,195.947113 
	C2327.351807,186.710159 2323.490234,178.667175 2317.011963,173.223297 
	C2309.955322,167.293549 2301.454834,164.460800 2290.976074,166.397308 
	C2280.035645,168.419113 2272.981445,173.895203 2268.958984,183.170090 
	C2265.892578,190.240845 2265.307129,198.142105 2265.332275,206.086334 
	C2265.523926,266.747620 2265.432129,327.409790 2265.443359,388.071686 
	C2265.444824,396.244812 2265.304443,404.332184 2267.496582,412.440979 
	C2271.820557,428.435547 2282.975342,436.243530 2297.691895,437.658966 
	C2300.407959,437.920197 2303.239258,436.582642 2306.047363,436.361053 
	C2314.546143,435.690277 2321.054932,430.791351 2325.418701,424.517883 
	C2330.471680,417.253815 2332.650635,408.076721 2332.734863,399.229370 
	C2333.057617,365.237274 2332.677490,331.238922 2332.698486,297.242981 
	C2332.701416,292.230713 2333.452881,287.218994 2333.854980,282.206787 
	C2334.159424,278.409668 2334.199707,274.568817 2334.824219,270.825226 
	C2335.718506,265.466675 2336.298096,259.875824 2338.328369,254.923798 
	C2342.623535,244.447464 2349.132324,235.663422 2358.384521,228.496918 
	C2367.334473,221.564499 2377.411133,218.702164 2387.972900,217.526169 
	C2394.304199,216.821228 2400.950195,218.478287 2407.401367,219.434143 
	C2415.833984,220.683563 2422.025879,226.481522 2426.374512,232.692947 
	C2432.211914,241.030777 2434.145508,251.539566 2435.623291,261.592590 
	C2436.749756,269.259064 2436.177246,277.190002 2436.186279,285.003510 
	C2436.226562,319.500732 2435.992920,354.000214 2436.345703,388.493866 
	C2436.438721,397.607513 2437.086670,407.051361 2439.632568,415.710602 
	C2442.231445,424.549500 2447.997803,432.051910 2457.740723,435.128082 
	C2464.662354,437.313538 2471.600342,439.054108 2478.766357,436.648010 
	C2485.918213,434.246704 2492.403076,430.388947 2496.527100,424.049530 
	C2502.210693,415.312653 2503.719482,404.942963 2503.748047,394.928162 
	C2503.873535,350.670624 2503.367676,306.410614 2502.955322,262.152740 
	C2502.876709,253.704437 2503.182373,245.059082 2501.511963,236.871460 
	C2499.710449,228.039017 2496.188477,219.472504 2492.665039,211.106598 
	C2490.369873,205.656906 2487.583008,199.925003 2483.500000,195.831741 
	C2477.303955,189.620239 2471.859375,182.273956 2463.423584,178.565979 
	C2459.008789,176.625366 2454.633057,174.596573 2449.929688,171.904358 
M2628.386230,435.804291 
	C2632.804932,435.987122 2637.221924,436.258209 2641.642334,436.335632 
	C2653.153564,436.537292 2664.691406,437.165527 2676.168457,436.603210 
	C2682.539307,436.291016 2689.079590,434.631470 2695.055664,432.318359 
	C2702.104980,429.589905 2710.008057,426.828522 2715.004639,421.639313 
	C2720.439209,415.995392 2724.239258,408.411194 2721.547852,398.849609 
	C2718.296875,387.300446 2707.253662,378.479858 2695.923340,381.304260 
	C2686.456543,383.664185 2676.963135,385.854004 2667.253418,385.306976 
	C2663.104980,385.073273 2658.584473,383.144043 2655.124268,380.715332 
	C2647.766602,375.551117 2648.531738,366.802612 2647.433594,359.142914 
	C2646.853027,355.093964 2647.821777,350.845306 2647.827393,346.686462 
	C2647.882568,306.370026 2647.881836,266.053497 2647.896729,225.736984 
	C2647.897461,223.953445 2647.896729,222.169907 2647.896729,220.425430 
	C2654.859375,219.990540 2661.426514,219.051315 2667.946045,219.309113 
	C2675.820068,219.620468 2682.725342,217.400330 2689.868896,214.416336 
	C2702.347900,209.203430 2702.538574,191.779694 2698.048584,183.989716 
	C2692.451660,174.279099 2682.478516,172.016953 2672.302490,171.348114 
	C2664.259766,170.819458 2656.154297,171.241791 2647.897217,171.241791 
	C2647.897217,154.584000 2648.005615,138.605728 2647.827637,122.630623 
	C2647.777100,118.122498 2646.908691,113.621262 2646.376221,109.121506 
	C2645.959473,105.598030 2645.830566,101.993538 2644.965332,98.579170 
	C2642.593750,89.219872 2636.355957,83.217545 2627.864502,78.915627 
	C2612.854980,71.311684 2596.705811,76.445869 2587.042236,89.468147 
	C2580.725586,97.979942 2580.995361,108.147453 2580.444092,117.670074 
	C2579.503174,133.934738 2580.350342,150.302490 2580.427246,166.627045 
	C2580.434082,168.062149 2580.300781,169.497894 2580.255615,170.445511 
	C2574.851807,171.263443 2569.929443,172.285446 2564.956543,172.704712 
	C2553.904053,173.636490 2545.985840,179.279282 2543.157227,189.678360 
	C2540.558838,199.230652 2543.069824,208.496826 2551.771729,214.518387 
	C2555.294678,216.956238 2559.693115,218.736649 2563.915771,219.401535 
	C2569.184814,220.231186 2574.684326,219.600800 2580.437256,219.600800 
	C2580.437256,221.853058 2580.437256,223.311798 2580.437256,224.770538 
	C2580.437256,266.086853 2580.282471,307.404175 2580.545898,348.718811 
	C2580.611816,359.066864 2581.922607,369.415283 2582.855469,379.745972 
	C2583.327881,384.976257 2583.768066,390.285614 2585.053223,395.348358 
	C2586.963623,402.873688 2590.151123,409.667725 2594.991943,416.169250 
	C2600.480469,423.541382 2607.511719,427.722260 2615.319824,431.240997 
	C2619.280029,433.025909 2623.642334,433.918549 2628.386230,435.804291 
M77.163422,446.720123 
	C84.074768,451.903229 92.086922,453.002319 100.402374,453.001984 
	C174.021530,452.999115 247.640671,453.008179 321.259827,452.976471 
	C324.836212,452.974945 328.583130,453.245026 331.954803,452.315460 
	C340.062012,450.080231 347.466766,446.548523 353.239899,439.902466 
	C363.285187,428.338409 367.274841,415.423584 362.998810,400.501160 
	C357.597717,381.652527 341.934998,369.891937 322.247101,369.965576 
	C246.349579,370.249420 170.451645,370.431274 94.553703,370.567993 
	C81.785210,370.590973 72.368599,377.384521 65.551338,386.762512 
	C58.664288,396.236542 55.355740,407.304443 58.325867,419.744110 
	C61.071152,431.242126 67.124931,439.950958 77.163422,446.720123 
M1766.000000,274.500000 
	C1765.721313,216.283096 1765.323608,158.066269 1765.293457,99.849236 
	C1765.288940,91.241135 1762.279663,84.016426 1757.535522,77.565613 
	C1751.503540,69.363396 1742.181274,67.004257 1732.516479,66.339790 
	C1729.751465,66.149681 1726.877686,66.902321 1724.111450,67.492691 
	C1717.538696,68.895493 1711.280884,71.852608 1707.688843,77.298416 
	C1701.742920,86.312790 1699.450195,96.483414 1699.484741,107.653847 
	C1699.782593,203.943283 1699.625854,300.234070 1699.731812,396.524323 
	C1699.737915,402.182526 1700.228271,407.989044 1701.567261,413.463867 
	C1703.883667,422.934814 1709.849976,430.198547 1718.612183,434.301636 
	C1725.017212,437.300903 1731.674805,438.332642 1739.371216,436.595917 
	C1749.602539,434.287262 1756.512451,429.268890 1761.381348,420.392120 
	C1765.428345,413.013489 1765.884766,404.946899 1765.919312,396.945465 
	C1766.094482,356.464264 1766.000000,315.981934 1766.000000,274.500000 
M57.148880,264.499939 
	C57.148869,276.665924 57.265965,288.833374 57.109711,300.997375 
	C56.996174,309.835693 59.118431,317.880585 63.335262,325.716705 
	C70.471512,338.977966 90.608994,347.950134 105.415443,345.234711 
	C125.423607,341.565338 140.625946,323.076263 140.179565,302.429047 
	C139.498901,270.945679 140.022156,239.436737 139.995377,207.938675 
	C139.967911,175.609756 140.005035,143.280075 139.775711,110.952415 
	C139.702103,100.577110 134.481476,91.993134 127.313744,85.214172 
	C118.456245,76.837120 107.559502,72.886551 94.975418,74.062531 
	C74.072273,76.015923 57.518333,93.015282 57.301014,114.010948 
	C56.785286,163.835800 57.143730,213.669693 57.148880,264.499939 
M1882.821533,168.450165 
	C1875.518311,166.737518 1868.523804,164.060287 1860.584229,166.340378 
	C1852.492554,168.664093 1845.787720,172.412567 1841.311035,179.529495 
	C1835.595947,188.615707 1835.007690,198.902710 1835.005615,209.249329 
	C1834.993774,267.908203 1834.930420,326.567291 1835.078369,385.225800 
	C1835.099731,393.647308 1836.156128,402.067261 1836.760254,410.486053 
	C1837.251953,417.339569 1840.292847,423.313171 1844.954224,427.911163 
	C1852.976074,435.823914 1862.290405,439.115845 1874.222534,436.695953 
	C1885.755127,434.357117 1893.013550,428.020599 1897.699707,418.183899 
	C1901.145508,410.951080 1901.499023,403.027649 1901.469116,394.936279 
	C1901.240967,333.278656 1901.372437,271.619720 1901.295532,209.961334 
	C1901.288696,204.480545 1900.681152,198.993469 1900.208252,193.521790 
	C1899.224609,182.142776 1892.477173,174.728622 1882.821533,168.450165 
M1844.918701,79.307861 
	C1842.790039,81.951202 1840.380005,84.418266 1838.590332,87.274086 
	C1834.703613,93.476212 1835.010742,100.284401 1835.641113,107.352196 
	C1836.468872,116.631950 1843.931885,128.605286 1852.323120,131.539780 
	C1860.732178,134.480606 1869.605103,136.588989 1878.233887,133.397034 
	C1886.123901,130.478317 1893.730103,126.916748 1897.834595,118.223808 
	C1901.751221,109.928185 1902.399658,101.894608 1900.409790,93.137444 
	C1898.304688,83.873627 1893.248657,77.244438 1884.583740,73.527237 
	C1877.328735,70.414833 1870.280884,68.005424 1861.793579,70.507523 
	C1855.598145,72.333961 1850.098633,74.471802 1844.918701,79.307861 
z"/>
<path fill="#FEFEFE" opacity="1.000000" stroke="none" 
	d="
M1387.200073,406.999023 
	C1386.339966,406.605164 1385.484863,406.675903 1385.061646,406.282227 
	C1378.931396,400.578735 1372.365845,395.244507 1366.875122,388.972321 
	C1355.497192,375.975098 1346.033936,361.523987 1338.770874,345.868073 
	C1334.176025,335.963776 1330.317749,325.594330 1327.376465,315.084473 
	C1324.917358,306.297699 1324.629883,296.927887 1322.732056,287.953430 
	C1320.085815,275.439819 1319.773682,262.724915 1319.331665,250.089050 
	C1319.041138,241.779434 1321.610229,233.400513 1321.696411,225.040237 
	C1321.846313,210.498871 1325.484131,196.605438 1329.571899,183.006165 
	C1332.985229,171.650299 1338.652344,160.894104 1344.039795,150.235519 
	C1347.923096,142.553040 1352.210449,134.812149 1357.720703,128.281281 
	C1364.629761,120.092850 1373.064453,113.205727 1380.671875,105.588303 
	C1387.547852,98.703148 1395.715332,93.746941 1403.987793,88.805717 
	C1414.428223,82.569611 1425.572266,78.067314 1437.131836,74.585037 
	C1445.109619,72.181816 1453.222168,70.159576 1461.371094,68.420074 
	C1465.218384,67.598831 1469.293945,67.857780 1473.264038,67.597519 
	C1479.948364,67.159309 1486.645508,66.191238 1493.310669,66.380936 
	C1500.682983,66.590752 1508.063477,67.600639 1515.370605,68.719170 
	C1524.042358,70.046600 1532.942383,70.948631 1541.194946,73.688011 
	C1552.384155,77.402199 1563.234497,82.307747 1573.878784,87.432083 
	C1580.726074,90.728401 1587.307129,94.860863 1593.336060,99.492470 
	C1599.124878,103.939651 1604.000732,109.563919 1609.361694,114.581207 
	C1621.806030,126.227615 1629.859253,140.896133 1635.364258,156.531540 
	C1638.659180,165.889862 1639.480835,176.517410 1635.963989,186.626160 
	C1632.911255,195.401337 1619.935669,207.777252 1608.731079,206.408981 
	C1603.427490,205.761307 1598.079346,206.240570 1592.957764,203.961411 
	C1584.886475,200.369827 1580.775146,193.203629 1576.583008,186.211853 
	C1570.864380,176.673889 1565.514282,166.991272 1558.980835,157.879410 
	C1551.618042,147.610855 1542.689941,139.470428 1531.894409,133.588196 
	C1525.743530,130.236816 1518.398926,129.142166 1511.730957,126.658249 
	C1502.140137,123.085686 1492.122314,124.517654 1482.432861,124.629211 
	C1470.451538,124.767166 1458.749268,128.323929 1448.120483,134.200546 
	C1439.922241,138.733353 1432.191162,144.026199 1425.779419,151.038849 
	C1417.034912,160.602722 1410.229980,171.486176 1405.539062,183.429947 
	C1401.692627,193.223755 1398.805054,203.470612 1396.415771,213.731644 
	C1394.978394,219.904617 1396.206055,226.718231 1394.644165,232.837616 
	C1392.032837,243.068695 1394.275757,253.221558 1393.814697,263.385956 
	C1393.478271,270.798370 1395.043945,278.305878 1395.870850,285.758881 
	C1396.365723,290.219238 1396.768311,294.724274 1397.748779,299.088684 
	C1399.441650,306.624023 1400.990112,314.272766 1403.649536,321.486755 
	C1406.186523,328.369385 1409.376587,335.232086 1413.525024,341.244385 
	C1418.792847,348.879456 1425.215942,355.583618 1432.579590,361.593506 
	C1439.947388,367.606689 1447.871582,371.900513 1456.729736,374.643402 
	C1462.031982,376.285187 1467.540405,377.535645 1473.047485,378.172180 
	C1480.165161,378.994812 1487.396118,379.550751 1494.536743,379.246277 
	C1500.845337,378.977264 1507.215210,377.825653 1513.341553,376.231567 
	C1519.987671,374.502289 1526.713257,372.464447 1532.812256,369.387939 
	C1542.218140,364.643372 1550.278320,358.137024 1556.662476,349.351227 
	C1560.153076,344.547516 1563.428711,339.825897 1566.418701,334.655151 
	C1571.009644,326.715637 1573.628784,318.106384 1577.289795,309.872437 
	C1580.966553,301.602753 1584.898193,293.520172 1593.828003,289.355835 
	C1604.141479,284.546326 1614.432617,285.176666 1623.764771,290.892334 
	C1630.454468,294.989655 1636.422607,300.652252 1637.731689,309.297760 
	C1638.223999,312.548706 1638.963745,315.823547 1638.934692,319.081635 
	C1638.799072,334.317139 1633.989624,348.474365 1627.587769,361.985931 
	C1624.462280,368.582336 1619.835815,374.570374 1615.288086,380.362183 
	C1610.395630,386.593048 1604.872070,392.338196 1599.493774,398.175476 
	C1591.035034,407.356018 1580.511597,413.492126 1569.639160,419.478210 
	C1558.017944,425.876648 1545.781860,430.378784 1533.147461,433.580261 
	C1525.093140,435.621155 1516.458008,435.376831 1508.081787,436.138397 
	C1501.906738,436.699860 1495.733887,437.597748 1489.551270,437.680847 
	C1482.219727,437.779419 1474.799561,437.740112 1467.557617,436.744049 
	C1450.381836,434.381714 1433.223389,431.359985 1417.200439,424.524445 
	C1408.252441,420.707123 1400.011108,415.221924 1391.498657,410.404968 
	C1390.014160,409.565033 1388.764160,408.310638 1387.200073,406.999023 
z"/>
<path fill="#FEFEFE" opacity="1.000000" stroke="none" 
	d="
M751.514404,437.833313 
	C741.019287,437.695526 731.953491,434.555725 725.667603,426.626740 
	C722.547791,422.691467 720.166382,417.297089 719.666443,412.339386 
	C718.606079,401.824127 718.826355,391.162567 718.820862,380.560852 
	C718.773865,290.085876 718.830933,199.610825 718.726562,109.135963 
	C718.717834,101.571144 718.783569,94.288658 721.511719,86.960922 
	C725.423035,76.455200 731.508301,70.022362 743.137512,67.467323 
	C752.003235,65.519463 759.552612,66.892708 766.340210,71.321213 
	C774.812744,76.848984 779.395508,85.009956 780.382385,95.747078 
	C783.567200,130.395401 780.770813,165.076691 781.786926,199.722443 
	C781.838501,201.480652 781.793579,203.241669 781.793579,205.703323 
	C787.114075,200.974335 791.749390,196.748947 796.497803,192.654816 
	C807.887146,182.834808 820.444336,175.163162 834.887939,170.446365 
	C849.234375,165.761307 864.051514,166.210495 878.611572,166.591278 
	C888.775879,166.857117 899.289734,169.005951 908.794128,173.607101 
	C915.900391,177.047333 923.190552,180.296295 929.751465,184.614075 
	C934.896484,187.999985 938.912048,193.055496 943.672302,197.082138 
	C954.901428,206.580887 961.345520,219.455109 967.168762,232.317261 
	C971.316895,241.479660 972.727417,251.884171 975.334045,261.741150 
	C979.105957,276.004791 978.260071,290.576569 978.163391,305.093628 
	C978.116943,312.074646 978.993835,319.255890 977.669006,325.995850 
	C974.427063,342.488464 971.171631,359.064270 963.560913,374.345337 
	C959.297607,382.905334 954.918152,391.333466 948.327698,398.415802 
	C943.520142,403.582214 939.373840,409.502991 934.010864,413.984222 
	C923.105042,423.097168 910.723755,430.175781 896.835571,433.398987 
	C886.440552,435.811462 875.652283,436.884125 864.975647,437.579651 
	C859.568420,437.931915 854.043945,435.676025 848.531860,435.394775 
	C837.114929,434.812195 827.103760,430.206024 817.274170,425.124390 
	C812.812927,422.818054 808.665161,419.813843 804.648621,416.765930 
	C801.055908,414.039612 797.591248,411.049652 794.515564,407.759552 
	C790.242188,403.188324 786.384827,398.228241 781.826965,392.814148 
	C781.826965,395.868591 782.163086,398.502594 781.768250,401.022064 
	C780.140442,411.409027 779.438232,422.270874 770.412109,429.676147 
	C766.320496,433.032990 762.074951,436.254028 756.314209,436.360992 
	C754.846252,436.388245 753.395325,437.333252 751.514404,437.833313 
M797.722290,356.806580 
	C801.488892,362.432556 805.597534,367.473999 810.895569,372.069641 
	C820.473938,380.378265 831.634094,384.325500 843.397461,385.505066 
	C856.299194,386.798828 868.890503,384.407288 880.136353,376.313416 
	C889.442200,369.615814 896.665527,361.513428 901.422913,351.337341 
	C904.696716,344.334747 907.328125,336.956482 909.456360,329.519928 
	C910.889465,324.512329 911.327820,319.124786 911.527954,313.881134 
	C911.857300,305.251282 911.630249,296.600281 911.645630,287.958191 
	C911.647644,286.803467 911.910156,285.604889 911.684814,284.501587 
	C910.641724,279.393799 909.683411,274.252869 908.288757,269.236694 
	C906.510559,262.840668 904.686218,256.417572 902.257935,250.251831 
	C898.951782,241.857132 892.580444,235.675827 886.163452,229.550873 
	C881.683411,225.274826 877.279541,221.078949 870.998779,219.646118 
	C866.805237,218.689438 862.220825,218.498230 858.503601,216.605164 
	C851.395752,212.985291 844.234131,215.532425 837.719543,216.672485 
	C830.313110,217.968613 822.992188,222.029083 816.632446,226.355423 
	C810.914856,230.244934 805.916382,235.652603 801.764954,241.253601 
	C797.616150,246.851181 794.604492,253.378723 791.681702,259.767303 
	C789.742737,264.005371 788.476807,268.644623 787.565735,273.234528 
	C786.571655,278.242737 786.903625,283.545685 785.654175,288.465332 
	C782.687256,300.147644 784.749390,311.808624 785.505981,323.392120 
	C785.929993,329.883209 788.394104,336.351990 790.642212,342.576843 
	C792.347778,347.299438 795.163940,351.620880 797.722290,356.806580 
z"/>
<path fill="#FEFEFE" opacity="1.000000" stroke="none" 
	d="
M1143.573242,335.732239 
	C1136.836914,342.373199 1130.335083,348.738617 1123.958374,355.227020 
	C1121.587646,357.639191 1119.421509,360.269348 1117.320312,362.925232 
	C1114.598999,366.364746 1112.035889,369.929413 1109.170654,373.752441 
	C1151.672485,373.752441 1193.475342,373.895142 1235.275879,373.629272 
	C1243.413086,373.577545 1251.143677,374.160095 1258.820923,377.060669 
	C1266.189697,379.844696 1276.200562,389.123718 1275.174316,398.608765 
	C1274.638794,403.558167 1275.121094,408.734741 1273.853149,413.462524 
	C1271.482422,422.301147 1264.561035,427.094666 1256.166504,429.376709 
	C1251.647461,430.605194 1246.767578,430.928558 1242.049194,430.936523 
	C1183.397827,431.035431 1124.746338,430.974304 1066.094849,431.028534 
	C1056.722290,431.037231 1047.363525,429.842468 1039.771484,424.497589 
	C1033.379883,419.997772 1028.399170,413.638336 1026.369629,405.374359 
	C1023.168213,392.338043 1028.647461,381.359100 1033.839355,370.268311 
	C1038.479248,360.356781 1044.865112,351.681580 1052.724976,344.010651 
	C1063.812256,333.189850 1074.630005,322.093323 1085.654541,311.207428 
	C1092.448486,304.498810 1099.326538,297.869476 1106.327759,291.378052 
	C1112.144531,285.984741 1117.976685,280.565826 1124.199219,275.662445 
	C1132.129272,269.413513 1140.548462,263.788757 1148.580811,257.664215 
	C1152.768066,254.471436 1156.611938,250.821671 1160.549194,247.309204 
	C1164.940430,243.391861 1169.564819,239.677780 1173.556519,235.381653 
	C1185.591675,222.428543 1196.171387,208.669708 1200.475952,190.827957 
	C1202.221680,183.592163 1202.495972,176.654984 1202.333984,169.342850 
	C1202.142334,160.690079 1199.665527,153.057739 1195.178467,145.946976 
	C1187.019287,133.016876 1175.120605,124.973541 1160.459595,121.540100 
	C1154.116089,120.054527 1147.178833,119.623764 1140.724365,120.426834 
	C1129.958252,121.766373 1120.308716,126.071884 1111.170166,132.550064 
	C1104.191772,137.497009 1100.125122,144.287750 1095.629272,150.703293 
	C1091.939575,155.968643 1090.953979,163.057495 1088.267334,169.115189 
	C1084.895264,176.718307 1081.281982,184.243164 1077.281250,191.531982 
	C1071.652344,201.787216 1061.279419,203.907166 1051.458496,202.461685 
	C1036.319946,200.233566 1026.919800,190.949966 1026.614868,173.104904 
	C1026.344360,157.272415 1031.123169,142.889023 1038.189697,128.828659 
	C1043.617798,118.028397 1051.304199,109.530579 1059.844482,101.305298 
	C1067.893311,93.553253 1076.959961,87.452347 1087.022705,83.086021 
	C1095.151978,79.558594 1103.867310,77.347435 1112.388672,74.770851 
	C1117.082764,73.351547 1121.887817,71.519478 1126.686890,71.378983 
	C1139.204346,71.012527 1151.747803,71.395164 1164.277100,71.657738 
	C1168.053589,71.736885 1171.850830,72.207703 1175.581177,72.838310 
	C1183.904297,74.245293 1192.313721,75.403519 1200.451294,77.557121 
	C1206.182739,79.073914 1211.806030,81.570152 1216.967529,84.521202 
	C1222.961426,87.948250 1228.660522,92.030891 1234.001831,96.420288 
	C1239.202026,100.693718 1244.533936,105.170052 1248.456177,110.543983 
	C1253.440430,117.373085 1257.587891,124.955719 1261.115479,132.662323 
	C1264.214600,139.432281 1266.248535,146.744156 1268.186768,153.968597 
	C1269.184570,157.687546 1269.069824,161.732208 1269.242554,165.639191 
	C1269.528931,172.118851 1270.526489,178.734238 1269.610962,185.058929 
	C1268.372925,193.613510 1266.628662,202.383331 1263.253418,210.269897 
	C1258.629272,221.074570 1253.170898,231.773499 1246.406860,241.342072 
	C1239.346924,251.329208 1230.648438,260.250671 1222.031860,269.014191 
	C1215.629883,275.525360 1208.245972,281.077393 1201.242798,286.989563 
	C1193.289795,293.703552 1185.285156,300.356537 1177.281250,307.010071 
	C1171.618408,311.717438 1165.858398,316.309631 1160.254272,321.085297 
	C1154.714966,325.805695 1149.317261,330.692047 1143.573242,335.732239 
z"/>
<path fill="#FEFEFE" opacity="1.000000" stroke="none" 
	d="
M480.672607,245.291397 
	C477.209991,249.945587 473.752411,254.291916 470.143982,258.509186 
	C468.788300,260.093597 467.269989,262.292511 465.506531,262.654175 
	C452.321777,265.358368 439.997467,263.647888 431.462891,252.154251 
	C427.328644,246.586731 424.430573,239.936493 427.142670,232.301392 
	C429.057587,226.910492 429.628143,220.950607 432.087616,215.868439 
	C434.961304,209.930435 438.445312,203.864487 443.090240,199.307190 
	C449.892487,192.633209 457.481262,186.447754 465.639099,181.564819 
	C472.514130,177.449722 480.584686,175.205673 488.299286,172.657974 
	C494.866241,170.489288 501.615875,168.730698 508.407990,167.438812 
	C512.708557,166.620865 517.235718,167.003845 521.660339,166.826675 
	C533.486877,166.353149 545.312622,165.527985 557.139221,165.519547 
	C563.848511,165.514755 570.575500,166.714462 577.263672,167.604050 
	C583.525757,168.436935 589.813354,169.277557 595.972168,170.644257 
	C607.890320,173.289001 619.087524,177.354950 629.046143,185.030685 
	C639.996887,193.471130 647.480774,203.817093 651.302856,217.003387 
	C653.018494,222.922440 655.770752,228.658447 656.629700,234.680481 
	C657.868408,243.365753 658.136658,252.231796 658.246765,261.027863 
	C658.584778,288.016541 658.628845,315.008728 658.835938,341.999207 
	C658.889526,348.982513 658.168396,356.150604 659.487061,362.904999 
	C661.672607,374.099152 664.509888,385.285004 668.386780,395.998749 
	C672.863525,408.369720 670.872131,421.690704 660.223755,429.552612 
	C654.830505,433.534576 647.893250,436.119202 641.269104,437.536957 
	C635.156555,438.845276 629.139099,435.759338 624.017212,432.049683 
	C612.890686,423.991058 606.360168,412.042328 598.398010,401.314758 
	C598.128296,400.951355 598.301025,400.259491 598.284668,399.996704 
	C589.693481,405.459259 581.002258,410.558777 572.774353,416.320007 
	C561.331604,424.332367 548.413086,429.145813 535.433777,433.503418 
	C528.698242,435.764740 521.070007,435.358093 513.848145,436.183044 
	C509.488495,436.681061 505.127106,437.732391 500.779541,437.667023 
	C483.582550,437.408752 466.862885,434.236847 451.948456,425.460266 
	C440.662384,418.818848 430.504211,410.330200 424.749878,398.060669 
	C421.107361,390.293976 416.915558,382.341156 415.624298,374.058044 
	C414.619629,367.613495 413.480835,360.779816 415.360199,353.504211 
	C417.284210,346.055786 417.703461,338.059631 421.607300,331.279663 
	C425.526184,324.473602 429.680573,317.492157 435.112457,311.937897 
	C444.244629,302.599915 455.573578,295.951813 468.263763,292.654663 
	C481.806152,289.136139 495.642853,286.753601 509.344299,283.843231 
	C520.265869,281.523346 531.257690,279.473358 542.074402,276.735046 
	C558.558777,272.562073 574.880920,267.748566 591.365662,263.577240 
	C594.413574,262.806000 593.935852,261.314697 593.699829,259.469543 
	C593.105408,254.823151 592.980347,250.008118 591.596252,245.596695 
	C589.495850,238.902298 586.883057,232.297318 583.771973,226.008575 
	C579.410645,217.192703 571.068115,214.725021 562.016479,213.780746 
	C554.526855,212.999420 546.993591,210.991379 539.589844,211.421829 
	C528.711792,212.054291 517.401428,212.570984 507.477386,217.608917 
	C496.834961,223.011536 488.511353,231.348785 482.639343,241.919159 
	C482.054077,242.972748 481.295685,243.930161 480.672607,245.291397 
M588.217468,352.003357 
	C588.655212,351.145416 589.372742,350.322906 589.486572,349.423950 
	C590.423706,342.023224 591.281555,334.611938 592.098999,327.196747 
	C592.960388,319.382996 593.750793,311.561432 594.573730,303.729462 
	C593.423706,303.603516 593.125305,303.487244 592.878052,303.555695 
	C578.177185,307.625854 563.614990,312.096741 548.449036,314.473419 
	C538.600769,316.016785 529.052734,319.395477 519.293274,321.613464 
	C511.669006,323.346252 503.986115,324.887085 497.517395,329.536438 
	C483.702667,339.465698 479.107941,349.322235 482.573486,365.750763 
	C484.030945,372.659821 489.105957,377.319031 493.625519,382.476776 
	C501.027802,390.924255 510.874634,393.078888 520.879761,393.473999 
	C528.603882,393.778992 536.441589,391.440948 544.215576,390.195740 
	C555.825562,388.336090 565.355774,382.244507 574.048523,374.829437 
	C580.965088,368.929443 585.757812,361.417542 588.217468,352.003357 
z"/>
<path fill="#FEFEFE" opacity="1.000000" stroke="none" 
	d="
M2131.591797,433.734436 
	C2125.977295,434.680023 2120.760254,436.374084 2115.479492,436.603516 
	C2103.912109,437.106140 2092.309814,437.022614 2080.727051,436.849762 
	C2076.296387,436.783691 2071.823975,436.092163 2067.466797,435.210327 
	C2057.070801,433.106354 2046.394409,431.675934 2036.467529,428.171021 
	C2027.030396,424.839050 2017.910522,419.954468 2009.563354,414.385315 
	C2002.154785,409.442413 1995.352783,403.194397 1989.429932,396.506775 
	C1978.610107,384.289978 1971.026978,369.857880 1965.547485,354.583893 
	C1962.850464,347.066132 1962.968018,338.574402 1960.626709,330.884277 
	C1957.691895,321.244751 1958.434570,311.421844 1958.258911,301.764679 
	C1958.019897,288.620148 1959.494263,275.541443 1962.384033,262.483643 
	C1965.668335,247.643082 1971.187744,233.943985 1978.420654,220.831467 
	C1980.963501,216.221619 1984.761475,212.292175 1988.078491,208.125427 
	C1990.400146,205.209030 1992.664185,202.198135 1995.321045,199.605606 
	C2011.071045,184.236893 2030.160156,175.044342 2051.227295,169.412170 
	C2067.595947,165.036072 2084.466553,164.481720 2100.970215,165.578583 
	C2118.960693,166.774261 2136.413574,171.315262 2152.826172,180.442307 
	C2165.537354,187.511169 2176.412842,196.407272 2185.617188,206.915924 
	C2193.059082,215.412521 2198.464844,226.014816 2203.294434,236.372833 
	C2206.988525,244.294846 2209.013672,253.178650 2210.582520,261.851501 
	C2211.903076,269.150665 2212.500977,276.886841 2211.593262,284.203064 
	C2210.527588,292.792877 2209.256592,302.220612 2201.042480,307.539978 
	C2195.827148,310.917358 2189.955566,314.167267 2183.970703,315.278748 
	C2172.859375,317.342194 2161.458252,318.654297 2150.162354,318.770111 
	C2111.000244,319.171692 2071.831787,318.925079 2032.665527,318.925079 
	C2030.869141,318.925079 2029.072632,318.925049 2027.042969,318.925049 
	C2025.848022,331.138000 2027.946777,342.430664 2033.263672,352.929962 
	C2036.988770,360.285828 2040.741333,367.986847 2046.155396,374.035309 
	C2052.580078,381.212860 2061.064453,386.156067 2070.369629,389.700195 
	C2080.876709,393.702087 2091.787842,392.384613 2102.327393,392.321259 
	C2110.127441,392.274414 2118.108398,388.216400 2125.631836,385.049530 
	C2134.615723,381.267761 2142.224854,375.201660 2149.316650,368.476959 
	C2156.315186,361.840485 2163.282959,355.098236 2170.893311,349.216003 
	C2174.034424,346.788086 2178.789062,345.533234 2182.856689,345.419189 
	C2190.085205,345.216522 2197.165527,346.820953 2202.531250,352.447296 
	C2207.876221,358.051819 2208.942139,365.242981 2207.086670,371.985474 
	C2205.019531,379.496887 2201.814697,387.046722 2197.470703,393.475281 
	C2193.586670,399.223145 2187.351807,403.343658 2182.386475,408.409973 
	C2177.174316,413.727936 2170.693359,416.918427 2164.379639,420.613861 
	C2155.092529,426.049957 2145.100098,429.289978 2134.997314,432.472076 
	C2133.947998,432.802612 2132.970947,433.364166 2131.591797,433.734436 
M2045.500610,280.030670 
	C2079.126465,280.030670 2112.752441,280.030670 2146.154541,280.030670 
	C2146.376221,277.172119 2147.136719,274.378448 2146.683838,271.797607 
	C2145.620117,265.737518 2144.469482,259.607605 2142.454590,253.819092 
	C2139.260254,244.642090 2135.488770,235.417465 2128.500244,228.510574 
	C2119.304199,219.422089 2108.226807,214.335953 2094.946533,212.353622 
	C2086.812256,211.139435 2079.588623,212.068085 2072.091064,213.702042 
	C2055.539551,217.309082 2044.523193,227.756180 2036.491821,242.282745 
	C2031.914062,250.562576 2030.185669,259.638641 2027.540649,268.456451 
	C2026.473999,272.012573 2026.880005,276.010468 2026.600220,280.030670 
	C2033.192871,280.030670 2038.847046,280.030670 2045.500610,280.030670 
z"/>
<path fill="#FDFDFD" opacity="1.000000" stroke="none" 
	d="
M2450.084473,172.255981 
	C2454.633057,174.596573 2459.008789,176.625366 2463.423584,178.565979 
	C2471.859375,182.273956 2477.303955,189.620239 2483.500000,195.831741 
	C2487.583008,199.925003 2490.369873,205.656906 2492.665039,211.106598 
	C2496.188477,219.472504 2499.710449,228.039017 2501.511963,236.871460 
	C2503.182373,245.059082 2502.876709,253.704437 2502.955322,262.152740 
	C2503.367676,306.410614 2503.873535,350.670624 2503.748047,394.928162 
	C2503.719482,404.942963 2502.210693,415.312653 2496.527100,424.049530 
	C2492.403076,430.388947 2485.918213,434.246704 2478.766357,436.648010 
	C2471.600342,439.054108 2464.662354,437.313538 2457.740723,435.128082 
	C2447.997803,432.051910 2442.231445,424.549500 2439.632568,415.710602 
	C2437.086670,407.051361 2436.438721,397.607513 2436.345703,388.493866 
	C2435.992920,354.000214 2436.226562,319.500732 2436.186279,285.003510 
	C2436.177246,277.190002 2436.749756,269.259064 2435.623291,261.592590 
	C2434.145508,251.539566 2432.211914,241.030777 2426.374512,232.692947 
	C2422.025879,226.481522 2415.833984,220.683563 2407.401367,219.434143 
	C2400.950195,218.478287 2394.304199,216.821228 2387.972900,217.526169 
	C2377.411133,218.702164 2367.334473,221.564499 2358.384521,228.496918 
	C2349.132324,235.663422 2342.623535,244.447464 2338.328369,254.923798 
	C2336.298096,259.875824 2335.718506,265.466675 2334.824219,270.825226 
	C2334.199707,274.568817 2334.159424,278.409668 2333.854980,282.206787 
	C2333.452881,287.218994 2332.701416,292.230713 2332.698486,297.242981 
	C2332.677490,331.238922 2333.057617,365.237274 2332.734863,399.229370 
	C2332.650635,408.076721 2330.471680,417.253815 2325.418701,424.517883 
	C2321.054932,430.791351 2314.546143,435.690277 2306.047363,436.361053 
	C2303.239258,436.582642 2300.407959,437.920197 2297.691895,437.658966 
	C2282.975342,436.243530 2271.820557,428.435547 2267.496582,412.440979 
	C2265.304443,404.332184 2265.444824,396.244812 2265.443359,388.071686 
	C2265.432129,327.409790 2265.523926,266.747620 2265.332275,206.086334 
	C2265.307129,198.142105 2265.892578,190.240845 2268.958984,183.170090 
	C2272.981445,173.895203 2280.035645,168.419113 2290.976074,166.397308 
	C2301.454834,164.460800 2309.955322,167.293549 2317.011963,173.223297 
	C2323.490234,178.667175 2327.351807,186.710159 2327.307617,195.947113 
	C2327.285156,200.692078 2327.978271,205.440460 2328.320312,209.831741 
	C2334.183594,203.499039 2339.647949,196.196182 2346.474365,190.536911 
	C2358.088867,180.908524 2370.470459,172.152481 2386.022705,169.723099 
	C2395.648193,168.219559 2405.264893,165.429535 2414.884766,165.433136 
	C2426.750732,165.437561 2438.637939,167.628769 2450.084473,172.255981 
z"/>
<path fill="#FDFDFD" opacity="1.000000" stroke="none" 
	d="
M2628.104492,435.509430 
	C2623.642334,433.918549 2619.280029,433.025909 2615.319824,431.240997 
	C2607.511719,427.722260 2600.480469,423.541382 2594.991943,416.169250 
	C2590.151123,409.667725 2586.963623,402.873688 2585.053223,395.348358 
	C2583.768066,390.285614 2583.327881,384.976257 2582.855469,379.745972 
	C2581.922607,369.415283 2580.611816,359.066864 2580.545898,348.718811 
	C2580.282471,307.404175 2580.437256,266.086853 2580.437256,224.770538 
	C2580.437256,223.311798 2580.437256,221.853058 2580.437256,219.600800 
	C2574.684326,219.600800 2569.184814,220.231186 2563.915771,219.401535 
	C2559.693115,218.736649 2555.294678,216.956238 2551.771729,214.518387 
	C2543.069824,208.496826 2540.558838,199.230652 2543.157227,189.678360 
	C2545.985840,179.279282 2553.904053,173.636490 2564.956543,172.704712 
	C2569.929443,172.285446 2574.851807,171.263443 2580.255615,170.445511 
	C2580.300781,169.497894 2580.434082,168.062149 2580.427246,166.627045 
	C2580.350342,150.302490 2579.503174,133.934738 2580.444092,117.670074 
	C2580.995361,108.147453 2580.725586,97.979942 2587.042236,89.468147 
	C2596.705811,76.445869 2612.854980,71.311684 2627.864502,78.915627 
	C2636.355957,83.217545 2642.593750,89.219872 2644.965332,98.579170 
	C2645.830566,101.993538 2645.959473,105.598030 2646.376221,109.121506 
	C2646.908691,113.621262 2647.777100,118.122498 2647.827637,122.630623 
	C2648.005615,138.605728 2647.897217,154.584000 2647.897217,171.241791 
	C2656.154297,171.241791 2664.259766,170.819458 2672.302490,171.348114 
	C2682.478516,172.016953 2692.451660,174.279099 2698.048584,183.989716 
	C2702.538574,191.779694 2702.347900,209.203430 2689.868896,214.416336 
	C2682.725342,217.400330 2675.820068,219.620468 2667.946045,219.309113 
	C2661.426514,219.051315 2654.859375,219.990540 2647.896729,220.425430 
	C2647.896729,222.169907 2647.897461,223.953445 2647.896729,225.736984 
	C2647.881836,266.053497 2647.882568,306.370026 2647.827393,346.686462 
	C2647.821777,350.845306 2646.853027,355.093964 2647.433594,359.142914 
	C2648.531738,366.802612 2647.766602,375.551117 2655.124268,380.715332 
	C2658.584473,383.144043 2663.104980,385.073273 2667.253418,385.306976 
	C2676.963135,385.854004 2686.456543,383.664185 2695.923340,381.304260 
	C2707.253662,378.479858 2718.296875,387.300446 2721.547852,398.849609 
	C2724.239258,408.411194 2720.439209,415.995392 2715.004639,421.639313 
	C2710.008057,426.828522 2702.104980,429.589905 2695.055664,432.318359 
	C2689.079590,434.631470 2682.539307,436.291016 2676.168457,436.603210 
	C2664.691406,437.165527 2653.153564,436.537292 2641.642334,436.335632 
	C2637.221924,436.258209 2632.804932,435.987122 2628.104492,435.509430 
z"/>
<path fill="#FEFFFF" opacity="1.000000" stroke="none" 
	d="
M76.820953,446.720398 
	C67.124931,439.950958 61.071152,431.242126 58.325867,419.744110 
	C55.355740,407.304443 58.664288,396.236542 65.551338,386.762512 
	C72.368599,377.384521 81.785210,370.590973 94.553703,370.567993 
	C170.451645,370.431274 246.349579,370.249420 322.247101,369.965576 
	C341.934998,369.891937 357.597717,381.652527 362.998810,400.501160 
	C367.274841,415.423584 363.285187,428.338409 353.239899,439.902466 
	C347.466766,446.548523 340.062012,450.080231 331.954803,452.315460 
	C328.583130,453.245026 324.836212,452.974945 321.259827,452.976471 
	C247.640671,453.008179 174.021530,452.999115 100.402374,453.001984 
	C92.086922,453.002319 84.074768,451.903229 76.820953,446.720398 
z"/>
<path fill="#FFFFFF" opacity="1.000000" stroke="none" 
	d="
M1766.000000,275.000000 
	C1766.000000,315.981934 1766.094482,356.464264 1765.919312,396.945465 
	C1765.884766,404.946899 1765.428345,413.013489 1761.381348,420.392120 
	C1756.512451,429.268890 1749.602539,434.287262 1739.371216,436.595917 
	C1731.674805,438.332642 1725.017212,437.300903 1718.612183,434.301636 
	C1709.849976,430.198547 1703.883667,422.934814 1701.567261,413.463867 
	C1700.228271,407.989044 1699.737915,402.182526 1699.731812,396.524323 
	C1699.625854,300.234070 1699.782593,203.943283 1699.484741,107.653847 
	C1699.450195,96.483414 1701.742920,86.312790 1707.688843,77.298416 
	C1711.280884,71.852608 1717.538696,68.895493 1724.111450,67.492691 
	C1726.877686,66.902321 1729.751465,66.149681 1732.516479,66.339790 
	C1742.181274,67.004257 1751.503540,69.363396 1757.535522,77.565613 
	C1762.279663,84.016426 1765.288940,91.241135 1765.293457,99.849236 
	C1765.323608,158.066269 1765.721313,216.283096 1766.000000,275.000000 
z"/>
<path fill="#FEFEFE" opacity="1.000000" stroke="none" 
	d="
M57.148880,263.999939 
	C57.143730,213.669693 56.785286,163.835800 57.301014,114.010948 
	C57.518333,93.015282 74.072273,76.015923 94.975418,74.062531 
	C107.559502,72.886551 118.456245,76.837120 127.313744,85.214172 
	C134.481476,91.993134 139.702103,100.577110 139.775711,110.952415 
	C140.005035,143.280075 139.967911,175.609756 139.995377,207.938675 
	C140.022156,239.436737 139.498901,270.945679 140.179565,302.429047 
	C140.625946,323.076263 125.423607,341.565338 105.415443,345.234711 
	C90.608994,347.950134 70.471512,338.977966 63.335262,325.716705 
	C59.118431,317.880585 56.996174,309.835693 57.109711,300.997375 
	C57.265965,288.833374 57.148869,276.665924 57.148880,263.999939 
z"/>
<path fill="#FFFFFF" opacity="1.000000" stroke="none" 
	d="
M1883.003906,168.782318 
	C1892.477173,174.728622 1899.224609,182.142776 1900.208252,193.521790 
	C1900.681152,198.993469 1901.288696,204.480545 1901.295532,209.961334 
	C1901.372437,271.619720 1901.240967,333.278656 1901.469116,394.936279 
	C1901.499023,403.027649 1901.145508,410.951080 1897.699707,418.183899 
	C1893.013550,428.020599 1885.755127,434.357117 1874.222534,436.695953 
	C1862.290405,439.115845 1852.976074,435.823914 1844.954224,427.911163 
	C1840.292847,423.313171 1837.251953,417.339569 1836.760254,410.486053 
	C1836.156128,402.067261 1835.099731,393.647308 1835.078369,385.225800 
	C1834.930420,326.567291 1834.993774,267.908203 1835.005615,209.249329 
	C1835.007690,198.902710 1835.595947,188.615707 1841.311035,179.529495 
	C1845.787720,172.412567 1852.492554,168.664093 1860.584229,166.340378 
	C1868.523804,164.060287 1875.518311,166.737518 1883.003906,168.782318 
z"/>
<path fill="#FDFDFD" opacity="1.000000" stroke="none" 
	d="
M1845.163086,79.046722 
	C1850.098633,74.471802 1855.598145,72.333961 1861.793579,70.507523 
	C1870.280884,68.005424 1877.328735,70.414833 1884.583740,73.527237 
	C1893.248657,77.244438 1898.304688,83.873627 1900.409790,93.137444 
	C1902.399658,101.894608 1901.751221,109.928185 1897.834595,118.223808 
	C1893.730103,126.916748 1886.123901,130.478317 1878.233887,133.397034 
	C1869.605103,136.588989 1860.732178,134.480606 1852.323120,131.539780 
	C1843.931885,128.605286 1836.468872,116.631950 1835.641113,107.352196 
	C1835.010742,100.284401 1834.703613,93.476212 1838.590332,87.274086 
	C1840.380005,84.418266 1842.790039,81.951202 1845.163086,79.046722 
z"/>
<path fill="#010101" opacity="0" stroke="none" 
	d="
M797.604126,356.463684 
	C795.163940,351.620880 792.347778,347.299438 790.642212,342.576843 
	C788.394104,336.351990 785.929993,329.883209 785.505981,323.392120 
	C784.749390,311.808624 782.687256,300.147644 785.654175,288.465332 
	C786.903625,283.545685 786.571655,278.242737 787.565735,273.234528 
	C788.476807,268.644623 789.742737,264.005371 791.681702,259.767303 
	C794.604492,253.378723 797.616150,246.851181 801.764954,241.253601 
	C805.916382,235.652603 810.914856,230.244934 816.632446,226.355423 
	C822.992188,222.029083 830.313110,217.968613 837.719543,216.672485 
	C844.234131,215.532425 851.395752,212.985291 858.503601,216.605164 
	C862.220825,218.498230 866.805237,218.689438 870.998779,219.646118 
	C877.279541,221.078949 881.683411,225.274826 886.163452,229.550873 
	C892.580444,235.675827 898.951782,241.857132 902.257935,250.251831 
	C904.686218,256.417572 906.510559,262.840668 908.288757,269.236694 
	C909.683411,274.252869 910.641724,279.393799 911.684814,284.501587 
	C911.910156,285.604889 911.647644,286.803467 911.645630,287.958191 
	C911.630249,296.600281 911.857300,305.251282 911.527954,313.881134 
	C911.327820,319.124786 910.889465,324.512329 909.456360,329.519928 
	C907.328125,336.956482 904.696716,344.334747 901.422913,351.337341 
	C896.665527,361.513428 889.442200,369.615814 880.136353,376.313416 
	C868.890503,384.407288 856.299194,386.798828 843.397461,385.505066 
	C831.634094,384.325500 820.473938,380.378265 810.895569,372.069641 
	C805.597534,367.473999 801.488892,362.432556 797.604126,356.463684 
z"/>
<path fill="#010101" opacity="0" stroke="none" 
	d="
M588.344055,352.334900 
	C585.757812,361.417542 580.965088,368.929443 574.048523,374.829437 
	C565.355774,382.244507 555.825562,388.336090 544.215576,390.195740 
	C536.441589,391.440948 528.603882,393.778992 520.879761,393.473999 
	C510.874634,393.078888 501.027802,390.924255 493.625519,382.476776 
	C489.105957,377.319031 484.030945,372.659821 482.573486,365.750763 
	C479.107941,349.322235 483.702667,339.465698 497.517395,329.536438 
	C503.986115,324.887085 511.669006,323.346252 519.293274,321.613464 
	C529.052734,319.395477 538.600769,316.016785 548.449036,314.473419 
	C563.614990,312.096741 578.177185,307.625854 592.878052,303.555695 
	C593.125305,303.487244 593.423706,303.603516 594.573730,303.729462 
	C593.750793,311.561432 592.960388,319.382996 592.098999,327.196747 
	C591.281555,334.611938 590.423706,342.023224 589.486572,349.423950 
	C589.372742,350.322906 588.655212,351.145416 588.344055,352.334900 
z"/>
<path fill="#010101" opacity="1.000000" stroke="none" 
	d="
M2045.000977,280.030670 
	C2038.847046,280.030670 2033.192871,280.030670 2026.600220,280.030670 
	C2026.880005,276.010468 2026.473999,272.012573 2027.540649,268.456451 
	C2030.185669,259.638641 2031.914062,250.562576 2036.491821,242.282745 
	C2044.523193,227.756180 2055.539551,217.309082 2072.091064,213.702042 
	C2079.588623,212.068085 2086.812256,211.139435 2094.946533,212.353622 
	C2108.226807,214.335953 2119.304199,219.422089 2128.500244,228.510574 
	C2135.488770,235.417465 2139.260254,244.642090 2142.454590,253.819092 
	C2144.469482,259.607605 2145.620117,265.737518 2146.683838,271.797607 
	C2147.136719,274.378448 2146.376221,277.172119 2146.154541,280.030670 
	C2112.752441,280.030670 2079.126465,280.030670 2045.000977,280.030670 
z"/>
</svg>